# xmcd
#
# Track frame offsets:
#	150
#	22139
#	38196
#	55838
#	74885
#	91180
#	107323
#	126863
#	140885
#	161124
#	179114
#
# Disc length: 2617 seconds
#
# Revision: 1
# Processed by: cddbd v1.5.2PL0 Copyright (c) Steve Scherf et al.
# Submitted via: audiograbber 1.83.01
#
DISCID=a70a370b
DTITLE=Westend - Partners, Brothers and Friends
DYEAR=2005
DGENRE=Country
TTITLE0=Ich Wollt Schon Immer
TTITLE1=Heimat
TTITLE2=Sieben Tage Highway
TTITLE3=One Night At A Time
TTITLE4=Nur Wenn Ich Dich Mal Küssen Darf
TTITLE5=Eines Tages
TTITLE6=Gone Country
TTITLE7=Ich Such Das Mädchen Fürs Leben
TTITLE8=Glaubst Du An Liebe
TTITLE9=Partners Brothers And Friends
TTITLE10=I Love This Bar
EXTD=Westend - Country Power aus Thueringen\nwww.westend-country.de
EXTT0=
EXTT1=
EXTT2=
EXTT3=
EXTT4=
EXTT5=
EXTT6=
EXTT7=
EXTT8=
EXTT9=
EXTT10=
PLAYORDER=
